M48
; DRILL file KiCad 10.0.4 date 2026-07-01T11:22:47
; FORMAT={-:-/ absolute / metric / decimal}
; #@! TF.CreationDate,2026-07-01T11:22:47-04:00
; #@! TF.GenerationSoftware,Kicad,Pcbnew,10.0.4
; #@! TF.FileFunction,Plated,1,2,PTH
FMAT,2
METRIC
; #@! TA.AperFunction,Plated,PTH,ComponentDrill
T1C0.800
; #@! TA.AperFunction,Plated,PTH,ComponentDrill
T2C0.900
; #@! TA.AperFunction,Plated,PTH,ComponentDrill
T3C1.000
; #@! TA.AperFunction,Plated,PTH,ComponentDrill
T4C1.100
%
G90
G05
T1
X155.38Y-74.0
X155.88Y-93.0
X163.0Y-74.0
X163.5Y-93.0
T2
X173.46Y-92.5
X176.0Y-92.5
T3
X127.68Y-71.96
X127.68Y-74.5
X127.68Y-77.04
X127.68Y-79.58
X127.68Y-82.12
X127.68Y-84.66
X127.68Y-87.2
X127.68Y-89.74
X127.68Y-92.28
X127.68Y-94.82
X127.68Y-97.36
X127.68Y-99.9
X127.68Y-102.44
X127.68Y-104.98
X127.68Y-107.52
X127.68Y-110.06
X137.96Y-121.5
X140.5Y-121.5
X148.0Y-82.12
X148.0Y-84.66
X148.0Y-87.2
X148.0Y-89.74
X148.0Y-92.28
X148.0Y-94.82
X148.0Y-97.36
X148.0Y-99.9
X148.0Y-102.44
X148.0Y-104.98
X148.0Y-107.52
X148.0Y-110.06
X168.0Y-109.0
X168.0Y-111.54
X168.0Y-114.08
T4
X170.5Y-71.5
X170.5Y-76.0
X177.0Y-71.5
X177.0Y-76.0
M30
