%TF.GenerationSoftware,KiCad,Pcbnew,10.0.4*%
%TF.CreationDate,2026-07-01T11:22:44-04:00*%
%TF.ProjectId,Door_Detector_Transmitter_PCB,446f6f72-5f44-4657-9465-63746f725f54,rev?*%
%TF.SameCoordinates,Original*%
%TF.FileFunction,Legend,Top*%
%TF.FilePolarity,Positive*%
%FSLAX46Y46*%
G04 Gerber Fmt 4.6, Leading zero omitted, Abs format (unit mm)*
G04 Created by KiCad (PCBNEW 10.0.4) date 2026-07-01 11:22:44*
%MOMM*%
%LPD*%
G01*
G04 APERTURE LIST*
%ADD10C,0.150000*%
%ADD11C,0.120000*%
G04 APERTURE END LIST*
D10*
X173991905Y-88994819D02*
X173991905Y-87994819D01*
X173991905Y-87994819D02*
X174230000Y-87994819D01*
X174230000Y-87994819D02*
X174372857Y-88042438D01*
X174372857Y-88042438D02*
X174468095Y-88137676D01*
X174468095Y-88137676D02*
X174515714Y-88232914D01*
X174515714Y-88232914D02*
X174563333Y-88423390D01*
X174563333Y-88423390D02*
X174563333Y-88566247D01*
X174563333Y-88566247D02*
X174515714Y-88756723D01*
X174515714Y-88756723D02*
X174468095Y-88851961D01*
X174468095Y-88851961D02*
X174372857Y-88947200D01*
X174372857Y-88947200D02*
X174230000Y-88994819D01*
X174230000Y-88994819D02*
X173991905Y-88994819D01*
X175515714Y-88994819D02*
X174944286Y-88994819D01*
X175230000Y-88994819D02*
X175230000Y-87994819D01*
X175230000Y-87994819D02*
X175134762Y-88137676D01*
X175134762Y-88137676D02*
X175039524Y-88232914D01*
X175039524Y-88232914D02*
X174944286Y-88280533D01*
X135034819Y-121833333D02*
X135749104Y-121833333D01*
X135749104Y-121833333D02*
X135891961Y-121880952D01*
X135891961Y-121880952D02*
X135987200Y-121976190D01*
X135987200Y-121976190D02*
X136034819Y-122119047D01*
X136034819Y-122119047D02*
X136034819Y-122214285D01*
X135130057Y-121404761D02*
X135082438Y-121357142D01*
X135082438Y-121357142D02*
X135034819Y-121261904D01*
X135034819Y-121261904D02*
X135034819Y-121023809D01*
X135034819Y-121023809D02*
X135082438Y-120928571D01*
X135082438Y-120928571D02*
X135130057Y-120880952D01*
X135130057Y-120880952D02*
X135225295Y-120833333D01*
X135225295Y-120833333D02*
X135320533Y-120833333D01*
X135320533Y-120833333D02*
X135463390Y-120880952D01*
X135463390Y-120880952D02*
X136034819Y-121452380D01*
X136034819Y-121452380D02*
X136034819Y-120833333D01*
X172416667Y-69907200D02*
X172559524Y-69954819D01*
X172559524Y-69954819D02*
X172797619Y-69954819D01*
X172797619Y-69954819D02*
X172892857Y-69907200D01*
X172892857Y-69907200D02*
X172940476Y-69859580D01*
X172940476Y-69859580D02*
X172988095Y-69764342D01*
X172988095Y-69764342D02*
X172988095Y-69669104D01*
X172988095Y-69669104D02*
X172940476Y-69573866D01*
X172940476Y-69573866D02*
X172892857Y-69526247D01*
X172892857Y-69526247D02*
X172797619Y-69478628D01*
X172797619Y-69478628D02*
X172607143Y-69431009D01*
X172607143Y-69431009D02*
X172511905Y-69383390D01*
X172511905Y-69383390D02*
X172464286Y-69335771D01*
X172464286Y-69335771D02*
X172416667Y-69240533D01*
X172416667Y-69240533D02*
X172416667Y-69145295D01*
X172416667Y-69145295D02*
X172464286Y-69050057D01*
X172464286Y-69050057D02*
X172511905Y-69002438D01*
X172511905Y-69002438D02*
X172607143Y-68954819D01*
X172607143Y-68954819D02*
X172845238Y-68954819D01*
X172845238Y-68954819D02*
X172988095Y-69002438D01*
X173321429Y-68954819D02*
X173559524Y-69954819D01*
X173559524Y-69954819D02*
X173750000Y-69240533D01*
X173750000Y-69240533D02*
X173940476Y-69954819D01*
X173940476Y-69954819D02*
X174178572Y-68954819D01*
X175083333Y-69954819D02*
X174511905Y-69954819D01*
X174797619Y-69954819D02*
X174797619Y-68954819D01*
X174797619Y-68954819D02*
X174702381Y-69097676D01*
X174702381Y-69097676D02*
X174607143Y-69192914D01*
X174607143Y-69192914D02*
X174511905Y-69240533D01*
X159023333Y-72084819D02*
X158690000Y-71608628D01*
X158451905Y-72084819D02*
X158451905Y-71084819D01*
X158451905Y-71084819D02*
X158832857Y-71084819D01*
X158832857Y-71084819D02*
X158928095Y-71132438D01*
X158928095Y-71132438D02*
X158975714Y-71180057D01*
X158975714Y-71180057D02*
X159023333Y-71275295D01*
X159023333Y-71275295D02*
X159023333Y-71418152D01*
X159023333Y-71418152D02*
X158975714Y-71513390D01*
X158975714Y-71513390D02*
X158928095Y-71561009D01*
X158928095Y-71561009D02*
X158832857Y-71608628D01*
X158832857Y-71608628D02*
X158451905Y-71608628D01*
X159404286Y-71180057D02*
X159451905Y-71132438D01*
X159451905Y-71132438D02*
X159547143Y-71084819D01*
X159547143Y-71084819D02*
X159785238Y-71084819D01*
X159785238Y-71084819D02*
X159880476Y-71132438D01*
X159880476Y-71132438D02*
X159928095Y-71180057D01*
X159928095Y-71180057D02*
X159975714Y-71275295D01*
X159975714Y-71275295D02*
X159975714Y-71370533D01*
X159975714Y-71370533D02*
X159928095Y-71513390D01*
X159928095Y-71513390D02*
X159356667Y-72084819D01*
X159356667Y-72084819D02*
X159975714Y-72084819D01*
X159523333Y-91084819D02*
X159190000Y-90608628D01*
X158951905Y-91084819D02*
X158951905Y-90084819D01*
X158951905Y-90084819D02*
X159332857Y-90084819D01*
X159332857Y-90084819D02*
X159428095Y-90132438D01*
X159428095Y-90132438D02*
X159475714Y-90180057D01*
X159475714Y-90180057D02*
X159523333Y-90275295D01*
X159523333Y-90275295D02*
X159523333Y-90418152D01*
X159523333Y-90418152D02*
X159475714Y-90513390D01*
X159475714Y-90513390D02*
X159428095Y-90561009D01*
X159428095Y-90561009D02*
X159332857Y-90608628D01*
X159332857Y-90608628D02*
X158951905Y-90608628D01*
X160475714Y-91084819D02*
X159904286Y-91084819D01*
X160190000Y-91084819D02*
X160190000Y-90084819D01*
X160190000Y-90084819D02*
X160094762Y-90227676D01*
X160094762Y-90227676D02*
X159999524Y-90322914D01*
X159999524Y-90322914D02*
X159904286Y-90370533D01*
X167666666Y-106074819D02*
X167666666Y-106789104D01*
X167666666Y-106789104D02*
X167619047Y-106931961D01*
X167619047Y-106931961D02*
X167523809Y-107027200D01*
X167523809Y-107027200D02*
X167380952Y-107074819D01*
X167380952Y-107074819D02*
X167285714Y-107074819D01*
X168666666Y-107074819D02*
X168095238Y-107074819D01*
X168380952Y-107074819D02*
X168380952Y-106074819D01*
X168380952Y-106074819D02*
X168285714Y-106217676D01*
X168285714Y-106217676D02*
X168190476Y-106312914D01*
X168190476Y-106312914D02*
X168095238Y-106360533D01*
X137125714Y-64509104D02*
X137601904Y-64509104D01*
X137030476Y-64794819D02*
X137363809Y-63794819D01*
X137363809Y-63794819D02*
X137697142Y-64794819D01*
X138554285Y-64794819D02*
X137982857Y-64794819D01*
X138268571Y-64794819D02*
X138268571Y-63794819D01*
X138268571Y-63794819D02*
X138173333Y-63937676D01*
X138173333Y-63937676D02*
X138078095Y-64032914D01*
X138078095Y-64032914D02*
X137982857Y-64080533D01*
%TO.C,D1*%
D11*
X177230000Y-92500000D02*
G75*
G02*
X172230000Y-92500000I-2500000J0D01*
G01*
X172230000Y-92500000D02*
G75*
G02*
X177230000Y-92500000I2500000J0D01*
G01*
X177720000Y-92500000D02*
G75*
G02*
X172170000Y-94044830I-2990000J0D01*
G01*
X172170000Y-90955170D02*
G75*
G02*
X177720000Y-92500000I2560000J-1544830D01*
G01*
X172170000Y-90955000D02*
X172170000Y-94045000D01*
%TO.C,J2*%
X139230000Y-120120000D02*
X141880000Y-120120000D01*
X141880000Y-122880000D02*
X141880000Y-120120000D01*
X139230000Y-122880000D02*
X139230000Y-120120000D01*
X139230000Y-122880000D02*
X141880000Y-122880000D01*
X137960000Y-122880000D02*
X136580000Y-122880000D01*
X136580000Y-122880000D02*
X136580000Y-121500000D01*
%TO.C,SW1*%
X170250000Y-73000000D02*
X170250000Y-74500000D01*
X171500000Y-77000000D02*
X176000000Y-77000000D01*
X176000000Y-70500000D02*
X171500000Y-70500000D01*
X177250000Y-74500000D02*
X177250000Y-73000000D01*
%TO.C,R2*%
X155920000Y-72630000D02*
X162460000Y-72630000D01*
X155920000Y-72960000D02*
X155920000Y-72630000D01*
X155920000Y-75040000D02*
X155920000Y-75370000D01*
X155920000Y-75370000D02*
X162460000Y-75370000D01*
X162460000Y-72630000D02*
X162460000Y-72960000D01*
X162460000Y-75370000D02*
X162460000Y-75040000D01*
%TO.C,R1*%
X156420000Y-91630000D02*
X162960000Y-91630000D01*
X156420000Y-91960000D02*
X156420000Y-91630000D01*
X156420000Y-94040000D02*
X156420000Y-94370000D01*
X156420000Y-94370000D02*
X162960000Y-94370000D01*
X162960000Y-91630000D02*
X162960000Y-91960000D01*
X162960000Y-94370000D02*
X162960000Y-94040000D01*
%TO.C,J1*%
X166620000Y-107620000D02*
X168000000Y-107620000D01*
X166620000Y-109000000D02*
X166620000Y-107620000D01*
X166620000Y-110270000D02*
X166620000Y-115460000D01*
X166620000Y-110270000D02*
X169380000Y-110270000D01*
X166620000Y-115460000D02*
X169380000Y-115460000D01*
X169380000Y-110270000D02*
X169380000Y-115460000D01*
%TO.C,A1*%
X125980000Y-72960000D02*
X125980000Y-70960000D01*
X126300000Y-68150000D02*
X126300000Y-113870000D01*
X146730000Y-65500000D02*
X128950000Y-65500000D01*
X146730000Y-116520000D02*
X128950000Y-116520000D01*
X149380000Y-68150000D02*
X149380000Y-113870000D01*
X126300000Y-68150000D02*
G75*
G02*
X128950000Y-65500000I2650000J0D01*
G01*
X128950000Y-116520000D02*
G75*
G02*
X126300000Y-113870000I0J2650000D01*
G01*
X146730000Y-65500000D02*
G75*
G02*
X149380000Y-68150000I0J-2650000D01*
G01*
X149380000Y-113870000D02*
G75*
G02*
X146730000Y-116520000I-2650000J0D01*
G01*
%TD*%
M02*
