%TF.GenerationSoftware,KiCad,Pcbnew,10.0.4*%
%TF.CreationDate,2026-07-01T11:22:44-04:00*%
%TF.ProjectId,Door_Detector_Transmitter_PCB,446f6f72-5f44-4657-9465-63746f725f54,rev?*%
%TF.SameCoordinates,Original*%
%TF.FileFunction,Soldermask,Top*%
%TF.FilePolarity,Negative*%
%FSLAX46Y46*%
G04 Gerber Fmt 4.6, Leading zero omitted, Abs format (unit mm)*
G04 Created by KiCad (PCBNEW 10.0.4) date 2026-07-01 11:22:44*
%MOMM*%
%LPD*%
G01*
G04 APERTURE LIST*
G04 Aperture macros list*
%AMRoundRect*
0 Rectangle with rounded corners*
0 $1 Rounding radius*
0 $2 $3 $4 $5 $6 $7 $8 $9 X,Y pos of 4 corners*
0 Add a 4 corners polygon primitive as box body*
4,1,4,$2,$3,$4,$5,$6,$7,$8,$9,$2,$3,0*
0 Add four circle primitives for the rounded corners*
1,1,$1+$1,$2,$3*
1,1,$1+$1,$4,$5*
1,1,$1+$1,$6,$7*
1,1,$1+$1,$8,$9*
0 Add four rect primitives between the rounded corners*
20,1,$1+$1,$2,$3,$4,$5,0*
20,1,$1+$1,$4,$5,$6,$7,0*
20,1,$1+$1,$6,$7,$8,$9,0*
20,1,$1+$1,$8,$9,$2,$3,0*%
G04 Aperture macros list end*
%ADD10C,1.800000*%
%ADD11R,1.800000X1.800000*%
%ADD12C,1.700000*%
%ADD13R,1.700000X1.700000*%
%ADD14C,2.000000*%
%ADD15C,1.600000*%
%ADD16RoundRect,0.250000X-1.050000X-0.550000X1.050000X-0.550000X1.050000X0.550000X-1.050000X0.550000X0*%
%ADD17O,2.600000X1.600000*%
G04 APERTURE END LIST*
D10*
%TO.C,D1*%
X176000000Y-92500000D03*
D11*
X173460000Y-92500000D03*
%TD*%
D12*
%TO.C,J2*%
X140500000Y-121500000D03*
D13*
X137960000Y-121500000D03*
%TD*%
D14*
%TO.C,SW1*%
X170500000Y-71500000D03*
X177000000Y-71500000D03*
X170500000Y-76000000D03*
X177000000Y-76000000D03*
%TD*%
D15*
%TO.C,R2*%
X155380000Y-74000000D03*
X163000000Y-74000000D03*
%TD*%
%TO.C,R1*%
X155880000Y-93000000D03*
X163500000Y-93000000D03*
%TD*%
D13*
%TO.C,J1*%
X168000000Y-109000000D03*
D12*
X168000000Y-111540000D03*
X168000000Y-114080000D03*
%TD*%
D16*
%TO.C,A1*%
X127980000Y-71960000D03*
D17*
X127980000Y-74500000D03*
X127980000Y-77040000D03*
X127980000Y-79580000D03*
X127980000Y-82120000D03*
X127980000Y-84660000D03*
X127980000Y-87200000D03*
X127980000Y-89740000D03*
X127980000Y-92280000D03*
X127980000Y-94820000D03*
X127980000Y-97360000D03*
X127980000Y-99900000D03*
X127980000Y-102440000D03*
X127980000Y-104980000D03*
X127980000Y-107520000D03*
X127980000Y-110060000D03*
X147700000Y-110060000D03*
X147700000Y-107520000D03*
X147700000Y-104980000D03*
X147700000Y-102440000D03*
X147700000Y-99900000D03*
X147700000Y-97360000D03*
X147700000Y-94820000D03*
X147700000Y-92280000D03*
X147700000Y-89740000D03*
X147700000Y-87200000D03*
X147700000Y-84660000D03*
X147700000Y-82120000D03*
%TD*%
M02*
