%TF.GenerationSoftware,KiCad,Pcbnew,10.0.4*%
%TF.CreationDate,2026-07-01T11:22:44-04:00*%
%TF.ProjectId,Door_Detector_Transmitter_PCB,446f6f72-5f44-4657-9465-63746f725f54,rev?*%
%TF.SameCoordinates,Original*%
%TF.FileFunction,Copper,L1,Top*%
%TF.FilePolarity,Positive*%
%FSLAX46Y46*%
G04 Gerber Fmt 4.6, Leading zero omitted, Abs format (unit mm)*
G04 Created by KiCad (PCBNEW 10.0.4) date 2026-07-01 11:22:44*
%MOMM*%
%LPD*%
G01*
G04 APERTURE LIST*
G04 Aperture macros list*
%AMRoundRect*
0 Rectangle with rounded corners*
0 $1 Rounding radius*
0 $2 $3 $4 $5 $6 $7 $8 $9 X,Y pos of 4 corners*
0 Add a 4 corners polygon primitive as box body*
4,1,4,$2,$3,$4,$5,$6,$7,$8,$9,$2,$3,0*
0 Add four circle primitives for the rounded corners*
1,1,$1+$1,$2,$3*
1,1,$1+$1,$4,$5*
1,1,$1+$1,$6,$7*
1,1,$1+$1,$8,$9*
0 Add four rect primitives between the rounded corners*
20,1,$1+$1,$2,$3,$4,$5,0*
20,1,$1+$1,$4,$5,$6,$7,0*
20,1,$1+$1,$6,$7,$8,$9,0*
20,1,$1+$1,$8,$9,$2,$3,0*%
G04 Aperture macros list end*
%TA.AperFunction,ComponentPad*%
%ADD10C,1.800000*%
%TD*%
%TA.AperFunction,ComponentPad*%
%ADD11R,1.800000X1.800000*%
%TD*%
%TA.AperFunction,ComponentPad*%
%ADD12C,1.700000*%
%TD*%
%TA.AperFunction,ComponentPad*%
%ADD13R,1.700000X1.700000*%
%TD*%
%TA.AperFunction,ComponentPad*%
%ADD14C,2.000000*%
%TD*%
%TA.AperFunction,ComponentPad*%
%ADD15C,1.600000*%
%TD*%
%TA.AperFunction,ComponentPad*%
%ADD16RoundRect,0.250000X-1.050000X-0.550000X1.050000X-0.550000X1.050000X0.550000X-1.050000X0.550000X0*%
%TD*%
%TA.AperFunction,ComponentPad*%
%ADD17O,2.600000X1.600000*%
%TD*%
%TA.AperFunction,Conductor*%
%ADD18C,0.500000*%
%TD*%
%TA.AperFunction,Conductor*%
%ADD19C,0.200000*%
%TD*%
%TA.AperFunction,Conductor*%
%ADD20C,0.300000*%
%TD*%
G04 APERTURE END LIST*
D10*
%TO.P,D1,2,A_2*%
%TO.N,Net-(D1-A)*%
X176000000Y-92500000D03*
D11*
%TO.P,D1,1,K_1*%
%TO.N,Net-(A1-GND)*%
X173460000Y-92500000D03*
%TD*%
D12*
%TO.P,J2,2,Pin_2_2*%
%TO.N,Net-(A1-GND)*%
X140500000Y-121500000D03*
D13*
%TO.P,J2,1,Pin_1_1*%
%TO.N,Net-(A1-USB)*%
X137960000Y-121500000D03*
%TD*%
D14*
%TO.P,SW1,1,1_1*%
%TO.N,Net-(A1-A9{slash}IO33)*%
X170500000Y-71500000D03*
X177000000Y-71500000D03*
%TO.P,SW1,2,2_2*%
%TO.N,Net-(A1-GND)*%
X170500000Y-76000000D03*
X177000000Y-76000000D03*
%TD*%
D15*
%TO.P,R2,1*%
%TO.N,Net-(A1-3V3)*%
X155380000Y-74000000D03*
%TO.P,R2,2*%
%TO.N,Net-(A1-A9{slash}IO33)*%
X163000000Y-74000000D03*
%TD*%
%TO.P,R1,1*%
%TO.N,Net-(A1-A10{slash}IO27)*%
X155880000Y-93000000D03*
%TO.P,R1,2*%
%TO.N,Net-(D1-A)*%
X163500000Y-93000000D03*
%TD*%
D13*
%TO.P,J1,1,Pin_1_1*%
%TO.N,Net-(A1-A7{slash}IO32)*%
X168000000Y-109000000D03*
D12*
%TO.P,J1,2,Pin_2_2*%
%TO.N,Net-(A1-GND)*%
X168000000Y-111540000D03*
%TO.P,J1,3,Pin_3_3*%
%TO.N,Net-(A1-3V3)*%
X168000000Y-114080000D03*
%TD*%
D16*
%TO.P,A1,1,~{RESET}_1*%
%TO.N,unconnected-(A1-~{RESET}-Pad1)*%
X127980000Y-71960000D03*
D17*
%TO.P,A1,2,3V3_2*%
%TO.N,Net-(A1-3V3)*%
X127980000Y-74500000D03*
%TO.P,A1,3,NC_3*%
%TO.N,unconnected-(A1-NC-Pad3)*%
X127980000Y-77040000D03*
%TO.P,A1,4,GND_4*%
%TO.N,Net-(A1-GND)*%
X127980000Y-79580000D03*
%TO.P,A1,5,DAC2/A0_5*%
%TO.N,unconnected-(A1-DAC2{slash}A0-Pad5)*%
X127980000Y-82120000D03*
%TO.P,A1,6,DAC1/A1_6*%
%TO.N,unconnected-(A1-DAC1{slash}A1-Pad6)*%
X127980000Y-84660000D03*
%TO.P,A1,7,I34/A2_7*%
%TO.N,unconnected-(A1-I34{slash}A2-Pad7)*%
X127980000Y-87200000D03*
%TO.P,A1,8,I39/A3_8*%
%TO.N,unconnected-(A1-I39{slash}A3-Pad8)*%
X127980000Y-89740000D03*
%TO.P,A1,9,IO36/A4_9*%
%TO.N,unconnected-(A1-IO36{slash}A4-Pad9)*%
X127980000Y-92280000D03*
%TO.P,A1,10,IO4/A5_10*%
%TO.N,unconnected-(A1-IO4{slash}A5-Pad10)*%
X127980000Y-94820000D03*
%TO.P,A1,11,SCK/IO5_11*%
%TO.N,unconnected-(A1-SCK{slash}IO5-Pad11)*%
X127980000Y-97360000D03*
%TO.P,A1,12,MOSI/IO18_12*%
%TO.N,unconnected-(A1-MOSI{slash}IO18-Pad12)*%
X127980000Y-99900000D03*
%TO.P,A1,13,MISO/IO19_13*%
%TO.N,unconnected-(A1-MISO{slash}IO19-Pad13)*%
X127980000Y-102440000D03*
%TO.P,A1,14,RX/IO16_14*%
%TO.N,unconnected-(A1-RX{slash}IO16-Pad14)*%
X127980000Y-104980000D03*
%TO.P,A1,15,TX/IO17_15*%
%TO.N,unconnected-(A1-TX{slash}IO17-Pad15)*%
X127980000Y-107520000D03*
%TO.P,A1,16,IO21_16*%
%TO.N,unconnected-(A1-IO21-Pad16)*%
X127980000Y-110060000D03*
%TO.P,A1,17,SDA/IO23_17*%
%TO.N,unconnected-(A1-SDA{slash}IO23-Pad17)*%
X147700000Y-110060000D03*
%TO.P,A1,18,SCL/IO22_18*%
%TO.N,unconnected-(A1-SCL{slash}IO22-Pad18)*%
X147700000Y-107520000D03*
%TO.P,A1,19,A6/IO14_19*%
%TO.N,unconnected-(A1-A6{slash}IO14-Pad19)*%
X147700000Y-104980000D03*
%TO.P,A1,20,A7/IO32_20*%
%TO.N,Net-(A1-A7{slash}IO32)*%
X147700000Y-102440000D03*
%TO.P,A1,21,A8/IO15_21*%
%TO.N,unconnected-(A1-A8{slash}IO15-Pad21)*%
X147700000Y-99900000D03*
%TO.P,A1,22,A9/IO33_22*%
%TO.N,Net-(A1-A9{slash}IO33)*%
X147700000Y-97360000D03*
%TO.P,A1,23,A10/IO27_23*%
%TO.N,Net-(A1-A10{slash}IO27)*%
X147700000Y-94820000D03*
%TO.P,A1,24,A11/IO12_24*%
%TO.N,unconnected-(A1-A11{slash}IO12-Pad24)*%
X147700000Y-92280000D03*
%TO.P,A1,25,A12/IO13_25*%
%TO.N,unconnected-(A1-A12{slash}IO13-Pad25)*%
X147700000Y-89740000D03*
%TO.P,A1,26,USB_26*%
%TO.N,Net-(A1-USB)*%
X147700000Y-87200000D03*
%TO.P,A1,27,EN_27*%
%TO.N,unconnected-(A1-EN-Pad27)*%
X147700000Y-84660000D03*
%TO.P,A1,28,VBAT_28*%
%TO.N,unconnected-(A1-VBAT-Pad28)*%
X147700000Y-82120000D03*
%TD*%
%TO.N,Net-(A1-USB)*%
D18*
X142300000Y-87200000D02*
X148000000Y-87200000D01*
X137960000Y-91540000D02*
X142300000Y-87200000D01*
X137960000Y-121500000D02*
X137960000Y-91540000D01*
D19*
X148080000Y-87365000D02*
X147945000Y-87500000D01*
%TO.N,Net-(D1-A)*%
D20*
X166500000Y-93000000D02*
X171000000Y-97500000D01*
X171000000Y-97500000D02*
X173500000Y-97500000D01*
%TO.N,Net-(A1-A9{slash}IO33)*%
X168000000Y-71500000D02*
X170500000Y-71500000D01*
X165500000Y-74000000D02*
X168000000Y-71500000D01*
%TO.N,Net-(A1-A7{slash}IO32)*%
X164605000Y-102605000D02*
X148080000Y-102605000D01*
X168000000Y-106000000D02*
X164605000Y-102605000D01*
X168000000Y-109000000D02*
X168000000Y-106000000D01*
%TO.N,Net-(A1-3V3)*%
D18*
X176500000Y-66000000D02*
X151500000Y-66000000D01*
X182500000Y-72000000D02*
X176500000Y-66000000D01*
X182500000Y-99580000D02*
X182500000Y-72000000D01*
X168000000Y-114080000D02*
X182500000Y-99580000D01*
X151500000Y-65500000D02*
X151500000Y-66000000D01*
X148500000Y-62500000D02*
X151500000Y-65500000D01*
%TO.N,Net-(A1-A9{slash}IO33)*%
D19*
X148105000Y-97500000D02*
X148080000Y-97525000D01*
D20*
X152500000Y-97500000D02*
X148105000Y-97500000D01*
X179500000Y-99000000D02*
X178000000Y-100500000D01*
X155500000Y-100500000D02*
X152500000Y-97500000D01*
X164000000Y-87500000D02*
X178500000Y-87500000D01*
X163000000Y-86500000D02*
X164000000Y-87500000D01*
X179500000Y-88500000D02*
X179500000Y-99000000D01*
X163000000Y-74000000D02*
X163000000Y-86500000D01*
X178500000Y-87500000D02*
X179500000Y-88500000D01*
X178000000Y-100500000D02*
X155500000Y-100500000D01*
X170500000Y-71500000D02*
X177000000Y-71500000D01*
X163000000Y-74000000D02*
X165500000Y-74000000D01*
%TO.N,Net-(A1-3V3)*%
D18*
X153500000Y-74000000D02*
X155380000Y-74000000D01*
X151500000Y-66000000D02*
X151500000Y-72000000D01*
X151500000Y-72000000D02*
X153500000Y-74000000D01*
X125500000Y-62500000D02*
X148500000Y-62500000D01*
X122500000Y-72000000D02*
X122500000Y-65500000D01*
X125165000Y-74665000D02*
X122500000Y-72000000D01*
X122500000Y-65500000D02*
X125500000Y-62500000D01*
X127760000Y-74665000D02*
X125165000Y-74665000D01*
%TO.N,Net-(D1-A)*%
D20*
X176000000Y-95000000D02*
X176000000Y-92500000D01*
X163500000Y-93000000D02*
X166500000Y-93000000D01*
X173500000Y-97500000D02*
X176000000Y-95000000D01*
%TO.N,Net-(A1-A10{slash}IO27)*%
X150065000Y-93000000D02*
X155880000Y-93000000D01*
X148080000Y-94985000D02*
X150065000Y-93000000D01*
%TD*%
M02*
