M48
; DRILL file KiCad 10.0.4 date 2026-07-01T09:48:25
; FORMAT={-:-/ absolute / metric / decimal}
; #@! TF.CreationDate,2026-07-01T09:48:25-04:00
; #@! TF.GenerationSoftware,Kicad,Pcbnew,10.0.4
; #@! TF.FileFunction,Plated,1,2,PTH
FMAT,2
METRIC
; #@! TA.AperFunction,Plated,PTH,ComponentDrill
T1C0.800
; #@! TA.AperFunction,Plated,PTH,ComponentDrill
T2C0.900
; #@! TA.AperFunction,Plated,PTH,ComponentDrill
T3C1.000
; #@! TA.AperFunction,Plated,PTH,ComponentDrill
T4C1.100
%
G90
G05
T1
X161.38Y-77.5
X161.38Y-92.0
X161.38Y-108.0
X169.0Y-77.5
X169.0Y-92.0
X169.0Y-108.0
T2
X177.46Y-91.5
X177.46Y-108.0
X180.0Y-91.5
X180.0Y-108.0
T3
X134.615Y-73.51
X134.615Y-76.05
X134.615Y-78.59
X134.615Y-81.13
X134.615Y-83.67
X134.615Y-86.21
X134.615Y-88.75
X134.615Y-91.29
X134.615Y-93.83
X134.615Y-96.37
X134.615Y-98.91
X134.615Y-101.45
X134.615Y-103.99
X134.615Y-106.53
X134.615Y-109.07
X134.615Y-111.61
X144.46Y-124.5
X147.0Y-124.5
X154.935Y-83.67
X154.935Y-86.21
X154.935Y-88.75
X154.935Y-91.29
X154.935Y-93.83
X154.935Y-96.37
X154.935Y-98.91
X154.935Y-101.45
X154.935Y-103.99
X154.935Y-106.53
X154.935Y-109.07
X154.935Y-111.61
T4
X175.0Y-70.0
X175.0Y-74.5
X181.5Y-70.0
X181.5Y-74.5
M30
