%TF.GenerationSoftware,KiCad,Pcbnew,10.0.4*%
%TF.CreationDate,2026-07-01T09:48:21-04:00*%
%TF.ProjectId,Door_Detector_PCB,446f6f72-5f44-4657-9465-63746f725f50,rev?*%
%TF.SameCoordinates,Original*%
%TF.FileFunction,Copper,L2,Bot*%
%TF.FilePolarity,Positive*%
%FSLAX46Y46*%
G04 Gerber Fmt 4.6, Leading zero omitted, Abs format (unit mm)*
G04 Created by KiCad (PCBNEW 10.0.4) date 2026-07-01 09:48:21*
%MOMM*%
%LPD*%
G01*
G04 APERTURE LIST*
G04 Aperture macros list*
%AMRoundRect*
0 Rectangle with rounded corners*
0 $1 Rounding radius*
0 $2 $3 $4 $5 $6 $7 $8 $9 X,Y pos of 4 corners*
0 Add a 4 corners polygon primitive as box body*
4,1,4,$2,$3,$4,$5,$6,$7,$8,$9,$2,$3,0*
0 Add four circle primitives for the rounded corners*
1,1,$1+$1,$2,$3*
1,1,$1+$1,$4,$5*
1,1,$1+$1,$6,$7*
1,1,$1+$1,$8,$9*
0 Add four rect primitives between the rounded corners*
20,1,$1+$1,$2,$3,$4,$5,0*
20,1,$1+$1,$4,$5,$6,$7,0*
20,1,$1+$1,$6,$7,$8,$9,0*
20,1,$1+$1,$8,$9,$2,$3,0*%
G04 Aperture macros list end*
%TA.AperFunction,ComponentPad*%
%ADD10C,1.800000*%
%TD*%
%TA.AperFunction,ComponentPad*%
%ADD11R,1.800000X1.800000*%
%TD*%
%TA.AperFunction,ComponentPad*%
%ADD12C,1.600000*%
%TD*%
%TA.AperFunction,ComponentPad*%
%ADD13C,2.000000*%
%TD*%
%TA.AperFunction,ComponentPad*%
%ADD14R,1.700000X1.700000*%
%TD*%
%TA.AperFunction,ComponentPad*%
%ADD15C,1.700000*%
%TD*%
%TA.AperFunction,ComponentPad*%
%ADD16RoundRect,0.250000X-1.050000X-0.550000X1.050000X-0.550000X1.050000X0.550000X-1.050000X0.550000X0*%
%TD*%
%TA.AperFunction,ComponentPad*%
%ADD17O,2.600000X1.600000*%
%TD*%
%TA.AperFunction,Conductor*%
%ADD18C,0.200000*%
%TD*%
G04 APERTURE END LIST*
D10*
%TO.P,D2,2,A_2*%
%TO.N,Net-(D2-A)*%
X180000000Y-108000000D03*
D11*
%TO.P,D2,1,K_1*%
%TO.N,Net-(A1-GND)*%
X177460000Y-108000000D03*
%TD*%
D12*
%TO.P,R1,2*%
%TO.N,Net-(D1-A)*%
X169000000Y-92000000D03*
%TO.P,R1,1*%
%TO.N,Net-(A1-A10{slash}IO27)*%
X161380000Y-92000000D03*
%TD*%
D13*
%TO.P,SW1,1,1_1*%
%TO.N,Net-(A1-A9{slash}IO33)*%
X175000000Y-70000000D03*
X181500000Y-70000000D03*
%TO.P,SW1,2,2_2*%
%TO.N,Net-(A1-GND)*%
X175000000Y-74500000D03*
X181500000Y-74500000D03*
%TD*%
D12*
%TO.P,R3,1*%
%TO.N,Net-(A1-3V3)*%
X161380000Y-77500000D03*
%TO.P,R3,2*%
%TO.N,Net-(A1-A9{slash}IO33)*%
X169000000Y-77500000D03*
%TD*%
%TO.P,R2,1*%
%TO.N,Net-(A1-A7{slash}IO32)*%
X161380000Y-108000000D03*
%TO.P,R2,2*%
%TO.N,Net-(D2-A)*%
X169000000Y-108000000D03*
%TD*%
D14*
%TO.P,J1,1,Pin_1_1*%
%TO.N,Net-(A1-USB)*%
X147000000Y-124500000D03*
D15*
%TO.P,J1,2,Pin_2_2*%
%TO.N,Net-(A1-GND)*%
X144460000Y-124500000D03*
%TD*%
D11*
%TO.P,D1,1,K_1*%
%TO.N,Net-(A1-GND)*%
X177460000Y-91500000D03*
D10*
%TO.P,D1,2,A_2*%
%TO.N,Net-(D1-A)*%
X180000000Y-91500000D03*
%TD*%
D16*
%TO.P,A1,1,~{RESET}_1*%
%TO.N,unconnected-(A1-~{RESET}-Pad1)*%
X134915000Y-73510000D03*
D17*
%TO.P,A1,2,3V3_2*%
%TO.N,Net-(A1-3V3)*%
X134915000Y-76050000D03*
%TO.P,A1,3,NC_3*%
%TO.N,unconnected-(A1-NC-Pad3)*%
X134915000Y-78590000D03*
%TO.P,A1,4,GND_4*%
%TO.N,Net-(A1-GND)*%
X134915000Y-81130000D03*
%TO.P,A1,5,DAC2/A0_5*%
%TO.N,unconnected-(A1-DAC2{slash}A0-Pad5)*%
X134915000Y-83670000D03*
%TO.P,A1,6,DAC1/A1_6*%
%TO.N,unconnected-(A1-DAC1{slash}A1-Pad6)*%
X134915000Y-86210000D03*
%TO.P,A1,7,I34/A2_7*%
%TO.N,unconnected-(A1-I34{slash}A2-Pad7)*%
X134915000Y-88750000D03*
%TO.P,A1,8,I39/A3_8*%
%TO.N,unconnected-(A1-I39{slash}A3-Pad8)*%
X134915000Y-91290000D03*
%TO.P,A1,9,IO36/A4_9*%
%TO.N,unconnected-(A1-IO36{slash}A4-Pad9)*%
X134915000Y-93830000D03*
%TO.P,A1,10,IO4/A5_10*%
%TO.N,unconnected-(A1-IO4{slash}A5-Pad10)*%
X134915000Y-96370000D03*
%TO.P,A1,11,SCK/IO5_11*%
%TO.N,unconnected-(A1-SCK{slash}IO5-Pad11)*%
X134915000Y-98910000D03*
%TO.P,A1,12,MOSI/IO18_12*%
%TO.N,unconnected-(A1-MOSI{slash}IO18-Pad12)*%
X134915000Y-101450000D03*
%TO.P,A1,13,MISO/IO19_13*%
%TO.N,unconnected-(A1-MISO{slash}IO19-Pad13)*%
X134915000Y-103990000D03*
%TO.P,A1,14,RX/IO16_14*%
%TO.N,unconnected-(A1-RX{slash}IO16-Pad14)*%
X134915000Y-106530000D03*
%TO.P,A1,15,TX/IO17_15*%
%TO.N,unconnected-(A1-TX{slash}IO17-Pad15)*%
X134915000Y-109070000D03*
%TO.P,A1,16,IO21_16*%
%TO.N,unconnected-(A1-IO21-Pad16)*%
X134915000Y-111610000D03*
%TO.P,A1,17,SDA/IO23_17*%
%TO.N,unconnected-(A1-SDA{slash}IO23-Pad17)*%
X154635000Y-111610000D03*
%TO.P,A1,18,SCL/IO22_18*%
%TO.N,unconnected-(A1-SCL{slash}IO22-Pad18)*%
X154635000Y-109070000D03*
%TO.P,A1,19,A6/IO14_19*%
%TO.N,unconnected-(A1-A6{slash}IO14-Pad19)*%
X154635000Y-106530000D03*
%TO.P,A1,20,A7/IO32_20*%
%TO.N,Net-(A1-A7{slash}IO32)*%
X154635000Y-103990000D03*
%TO.P,A1,21,A8/IO15_21*%
%TO.N,unconnected-(A1-A8{slash}IO15-Pad21)*%
X154635000Y-101450000D03*
%TO.P,A1,22,A9/IO33_22*%
%TO.N,Net-(A1-A9{slash}IO33)*%
X154635000Y-98910000D03*
%TO.P,A1,23,A10/IO27_23*%
%TO.N,Net-(A1-A10{slash}IO27)*%
X154635000Y-96370000D03*
%TO.P,A1,24,A11/IO12_24*%
%TO.N,unconnected-(A1-A11{slash}IO12-Pad24)*%
X154635000Y-93830000D03*
%TO.P,A1,25,A12/IO13_25*%
%TO.N,unconnected-(A1-A12{slash}IO13-Pad25)*%
X154635000Y-91290000D03*
%TO.P,A1,26,USB_26*%
%TO.N,Net-(A1-USB)*%
X154635000Y-88750000D03*
%TO.P,A1,27,EN_27*%
%TO.N,unconnected-(A1-EN-Pad27)*%
X154635000Y-86210000D03*
%TO.P,A1,28,VBAT_28*%
%TO.N,unconnected-(A1-VBAT-Pad28)*%
X154635000Y-83670000D03*
%TD*%
%TO.N,Net-(A1-GND)*%
D18*
X175000000Y-80000000D02*
X173870000Y-81130000D01*
X173870000Y-81130000D02*
X134615000Y-81130000D01*
X181500000Y-74500000D02*
X175000000Y-74500000D01*
X175000000Y-80000000D02*
X175000000Y-74500000D01*
X177460000Y-91500000D02*
X177460000Y-82460000D01*
X177460000Y-82460000D02*
X175000000Y-80000000D01*
X177460000Y-108000000D02*
X177460000Y-91500000D01*
X177460000Y-117540000D02*
X177460000Y-108000000D01*
X146500000Y-120500000D02*
X174500000Y-120500000D01*
X144460000Y-122540000D02*
X146500000Y-120500000D01*
X144460000Y-124500000D02*
X144460000Y-122540000D01*
X174500000Y-120500000D02*
X177460000Y-117540000D01*
%TD*%
M02*
