%TF.GenerationSoftware,KiCad,Pcbnew,10.0.4*%
%TF.CreationDate,2026-07-01T09:48:21-04:00*%
%TF.ProjectId,Door_Detector_PCB,446f6f72-5f44-4657-9465-63746f725f50,rev?*%
%TF.SameCoordinates,Original*%
%TF.FileFunction,Legend,Top*%
%TF.FilePolarity,Positive*%
%FSLAX46Y46*%
G04 Gerber Fmt 4.6, Leading zero omitted, Abs format (unit mm)*
G04 Created by KiCad (PCBNEW 10.0.4) date 2026-07-01 09:48:21*
%MOMM*%
%LPD*%
G01*
G04 APERTURE LIST*
%ADD10C,0.150000*%
%ADD11C,0.120000*%
G04 APERTURE END LIST*
D10*
X177991905Y-104494819D02*
X177991905Y-103494819D01*
X177991905Y-103494819D02*
X178230000Y-103494819D01*
X178230000Y-103494819D02*
X178372857Y-103542438D01*
X178372857Y-103542438D02*
X178468095Y-103637676D01*
X178468095Y-103637676D02*
X178515714Y-103732914D01*
X178515714Y-103732914D02*
X178563333Y-103923390D01*
X178563333Y-103923390D02*
X178563333Y-104066247D01*
X178563333Y-104066247D02*
X178515714Y-104256723D01*
X178515714Y-104256723D02*
X178468095Y-104351961D01*
X178468095Y-104351961D02*
X178372857Y-104447200D01*
X178372857Y-104447200D02*
X178230000Y-104494819D01*
X178230000Y-104494819D02*
X177991905Y-104494819D01*
X178944286Y-103590057D02*
X178991905Y-103542438D01*
X178991905Y-103542438D02*
X179087143Y-103494819D01*
X179087143Y-103494819D02*
X179325238Y-103494819D01*
X179325238Y-103494819D02*
X179420476Y-103542438D01*
X179420476Y-103542438D02*
X179468095Y-103590057D01*
X179468095Y-103590057D02*
X179515714Y-103685295D01*
X179515714Y-103685295D02*
X179515714Y-103780533D01*
X179515714Y-103780533D02*
X179468095Y-103923390D01*
X179468095Y-103923390D02*
X178896667Y-104494819D01*
X178896667Y-104494819D02*
X179515714Y-104494819D01*
X165023333Y-90084819D02*
X164690000Y-89608628D01*
X164451905Y-90084819D02*
X164451905Y-89084819D01*
X164451905Y-89084819D02*
X164832857Y-89084819D01*
X164832857Y-89084819D02*
X164928095Y-89132438D01*
X164928095Y-89132438D02*
X164975714Y-89180057D01*
X164975714Y-89180057D02*
X165023333Y-89275295D01*
X165023333Y-89275295D02*
X165023333Y-89418152D01*
X165023333Y-89418152D02*
X164975714Y-89513390D01*
X164975714Y-89513390D02*
X164928095Y-89561009D01*
X164928095Y-89561009D02*
X164832857Y-89608628D01*
X164832857Y-89608628D02*
X164451905Y-89608628D01*
X165975714Y-90084819D02*
X165404286Y-90084819D01*
X165690000Y-90084819D02*
X165690000Y-89084819D01*
X165690000Y-89084819D02*
X165594762Y-89227676D01*
X165594762Y-89227676D02*
X165499524Y-89322914D01*
X165499524Y-89322914D02*
X165404286Y-89370533D01*
X176916667Y-68407200D02*
X177059524Y-68454819D01*
X177059524Y-68454819D02*
X177297619Y-68454819D01*
X177297619Y-68454819D02*
X177392857Y-68407200D01*
X177392857Y-68407200D02*
X177440476Y-68359580D01*
X177440476Y-68359580D02*
X177488095Y-68264342D01*
X177488095Y-68264342D02*
X177488095Y-68169104D01*
X177488095Y-68169104D02*
X177440476Y-68073866D01*
X177440476Y-68073866D02*
X177392857Y-68026247D01*
X177392857Y-68026247D02*
X177297619Y-67978628D01*
X177297619Y-67978628D02*
X177107143Y-67931009D01*
X177107143Y-67931009D02*
X177011905Y-67883390D01*
X177011905Y-67883390D02*
X176964286Y-67835771D01*
X176964286Y-67835771D02*
X176916667Y-67740533D01*
X176916667Y-67740533D02*
X176916667Y-67645295D01*
X176916667Y-67645295D02*
X176964286Y-67550057D01*
X176964286Y-67550057D02*
X177011905Y-67502438D01*
X177011905Y-67502438D02*
X177107143Y-67454819D01*
X177107143Y-67454819D02*
X177345238Y-67454819D01*
X177345238Y-67454819D02*
X177488095Y-67502438D01*
X177821429Y-67454819D02*
X178059524Y-68454819D01*
X178059524Y-68454819D02*
X178250000Y-67740533D01*
X178250000Y-67740533D02*
X178440476Y-68454819D01*
X178440476Y-68454819D02*
X178678572Y-67454819D01*
X179583333Y-68454819D02*
X179011905Y-68454819D01*
X179297619Y-68454819D02*
X179297619Y-67454819D01*
X179297619Y-67454819D02*
X179202381Y-67597676D01*
X179202381Y-67597676D02*
X179107143Y-67692914D01*
X179107143Y-67692914D02*
X179011905Y-67740533D01*
X165023333Y-75584819D02*
X164690000Y-75108628D01*
X164451905Y-75584819D02*
X164451905Y-74584819D01*
X164451905Y-74584819D02*
X164832857Y-74584819D01*
X164832857Y-74584819D02*
X164928095Y-74632438D01*
X164928095Y-74632438D02*
X164975714Y-74680057D01*
X164975714Y-74680057D02*
X165023333Y-74775295D01*
X165023333Y-74775295D02*
X165023333Y-74918152D01*
X165023333Y-74918152D02*
X164975714Y-75013390D01*
X164975714Y-75013390D02*
X164928095Y-75061009D01*
X164928095Y-75061009D02*
X164832857Y-75108628D01*
X164832857Y-75108628D02*
X164451905Y-75108628D01*
X165356667Y-74584819D02*
X165975714Y-74584819D01*
X165975714Y-74584819D02*
X165642381Y-74965771D01*
X165642381Y-74965771D02*
X165785238Y-74965771D01*
X165785238Y-74965771D02*
X165880476Y-75013390D01*
X165880476Y-75013390D02*
X165928095Y-75061009D01*
X165928095Y-75061009D02*
X165975714Y-75156247D01*
X165975714Y-75156247D02*
X165975714Y-75394342D01*
X165975714Y-75394342D02*
X165928095Y-75489580D01*
X165928095Y-75489580D02*
X165880476Y-75537200D01*
X165880476Y-75537200D02*
X165785238Y-75584819D01*
X165785238Y-75584819D02*
X165499524Y-75584819D01*
X165499524Y-75584819D02*
X165404286Y-75537200D01*
X165404286Y-75537200D02*
X165356667Y-75489580D01*
X165023333Y-106084819D02*
X164690000Y-105608628D01*
X164451905Y-106084819D02*
X164451905Y-105084819D01*
X164451905Y-105084819D02*
X164832857Y-105084819D01*
X164832857Y-105084819D02*
X164928095Y-105132438D01*
X164928095Y-105132438D02*
X164975714Y-105180057D01*
X164975714Y-105180057D02*
X165023333Y-105275295D01*
X165023333Y-105275295D02*
X165023333Y-105418152D01*
X165023333Y-105418152D02*
X164975714Y-105513390D01*
X164975714Y-105513390D02*
X164928095Y-105561009D01*
X164928095Y-105561009D02*
X164832857Y-105608628D01*
X164832857Y-105608628D02*
X164451905Y-105608628D01*
X165404286Y-105180057D02*
X165451905Y-105132438D01*
X165451905Y-105132438D02*
X165547143Y-105084819D01*
X165547143Y-105084819D02*
X165785238Y-105084819D01*
X165785238Y-105084819D02*
X165880476Y-105132438D01*
X165880476Y-105132438D02*
X165928095Y-105180057D01*
X165928095Y-105180057D02*
X165975714Y-105275295D01*
X165975714Y-105275295D02*
X165975714Y-105370533D01*
X165975714Y-105370533D02*
X165928095Y-105513390D01*
X165928095Y-105513390D02*
X165356667Y-106084819D01*
X165356667Y-106084819D02*
X165975714Y-106084819D01*
X148834819Y-124833333D02*
X149549104Y-124833333D01*
X149549104Y-124833333D02*
X149691961Y-124880952D01*
X149691961Y-124880952D02*
X149787200Y-124976190D01*
X149787200Y-124976190D02*
X149834819Y-125119047D01*
X149834819Y-125119047D02*
X149834819Y-125214285D01*
X149834819Y-123833333D02*
X149834819Y-124404761D01*
X149834819Y-124119047D02*
X148834819Y-124119047D01*
X148834819Y-124119047D02*
X148977676Y-124214285D01*
X148977676Y-124214285D02*
X149072914Y-124309523D01*
X149072914Y-124309523D02*
X149120533Y-124404761D01*
X177991905Y-87994819D02*
X177991905Y-86994819D01*
X177991905Y-86994819D02*
X178230000Y-86994819D01*
X178230000Y-86994819D02*
X178372857Y-87042438D01*
X178372857Y-87042438D02*
X178468095Y-87137676D01*
X178468095Y-87137676D02*
X178515714Y-87232914D01*
X178515714Y-87232914D02*
X178563333Y-87423390D01*
X178563333Y-87423390D02*
X178563333Y-87566247D01*
X178563333Y-87566247D02*
X178515714Y-87756723D01*
X178515714Y-87756723D02*
X178468095Y-87851961D01*
X178468095Y-87851961D02*
X178372857Y-87947200D01*
X178372857Y-87947200D02*
X178230000Y-87994819D01*
X178230000Y-87994819D02*
X177991905Y-87994819D01*
X179515714Y-87994819D02*
X178944286Y-87994819D01*
X179230000Y-87994819D02*
X179230000Y-86994819D01*
X179230000Y-86994819D02*
X179134762Y-87137676D01*
X179134762Y-87137676D02*
X179039524Y-87232914D01*
X179039524Y-87232914D02*
X178944286Y-87280533D01*
X144060714Y-66059104D02*
X144536904Y-66059104D01*
X143965476Y-66344819D02*
X144298809Y-65344819D01*
X144298809Y-65344819D02*
X144632142Y-66344819D01*
X145489285Y-66344819D02*
X144917857Y-66344819D01*
X145203571Y-66344819D02*
X145203571Y-65344819D01*
X145203571Y-65344819D02*
X145108333Y-65487676D01*
X145108333Y-65487676D02*
X145013095Y-65582914D01*
X145013095Y-65582914D02*
X144917857Y-65630533D01*
%TO.C,D2*%
D11*
X181230000Y-108000000D02*
G75*
G02*
X176230000Y-108000000I-2500000J0D01*
G01*
X176230000Y-108000000D02*
G75*
G02*
X181230000Y-108000000I2500000J0D01*
G01*
X181720000Y-108000000D02*
G75*
G02*
X176170000Y-109544830I-2990000J0D01*
G01*
X176170000Y-106455170D02*
G75*
G02*
X181720000Y-108000000I2560000J-1544830D01*
G01*
X176170000Y-106455000D02*
X176170000Y-109545000D01*
%TO.C,R1*%
X168460000Y-93370000D02*
X168460000Y-93040000D01*
X168460000Y-90630000D02*
X168460000Y-90960000D01*
X161920000Y-93370000D02*
X168460000Y-93370000D01*
X161920000Y-93040000D02*
X161920000Y-93370000D01*
X161920000Y-90960000D02*
X161920000Y-90630000D01*
X161920000Y-90630000D02*
X168460000Y-90630000D01*
%TO.C,SW1*%
X174750000Y-71500000D02*
X174750000Y-73000000D01*
X176000000Y-75500000D02*
X180500000Y-75500000D01*
X180500000Y-69000000D02*
X176000000Y-69000000D01*
X181750000Y-73000000D02*
X181750000Y-71500000D01*
%TO.C,R3*%
X161920000Y-76130000D02*
X168460000Y-76130000D01*
X161920000Y-76460000D02*
X161920000Y-76130000D01*
X161920000Y-78540000D02*
X161920000Y-78870000D01*
X161920000Y-78870000D02*
X168460000Y-78870000D01*
X168460000Y-76130000D02*
X168460000Y-76460000D01*
X168460000Y-78870000D02*
X168460000Y-78540000D01*
%TO.C,R2*%
X161920000Y-106630000D02*
X168460000Y-106630000D01*
X161920000Y-106960000D02*
X161920000Y-106630000D01*
X161920000Y-109040000D02*
X161920000Y-109370000D01*
X161920000Y-109370000D02*
X168460000Y-109370000D01*
X168460000Y-106630000D02*
X168460000Y-106960000D01*
X168460000Y-109370000D02*
X168460000Y-109040000D01*
%TO.C,J1*%
X148380000Y-123120000D02*
X148380000Y-124500000D01*
X147000000Y-123120000D02*
X148380000Y-123120000D01*
X145730000Y-123120000D02*
X143080000Y-123120000D01*
X145730000Y-123120000D02*
X145730000Y-125880000D01*
X143080000Y-123120000D02*
X143080000Y-125880000D01*
X145730000Y-125880000D02*
X143080000Y-125880000D01*
%TO.C,D1*%
X176170000Y-89955000D02*
X176170000Y-93045000D01*
X176170000Y-89955170D02*
G75*
G02*
X181720000Y-91500000I2560000J-1544830D01*
G01*
X181720000Y-91500000D02*
G75*
G02*
X176170000Y-93044830I-2990000J0D01*
G01*
X181230000Y-91500000D02*
G75*
G02*
X176230000Y-91500000I-2500000J0D01*
G01*
X176230000Y-91500000D02*
G75*
G02*
X181230000Y-91500000I2500000J0D01*
G01*
%TO.C,A1*%
X132915000Y-74510000D02*
X132915000Y-72510000D01*
X133235000Y-69700000D02*
X133235000Y-115420000D01*
X153665000Y-67050000D02*
X135885000Y-67050000D01*
X153665000Y-118070000D02*
X135885000Y-118070000D01*
X156315000Y-69700000D02*
X156315000Y-115420000D01*
X133235000Y-69700000D02*
G75*
G02*
X135885000Y-67050000I2650000J0D01*
G01*
X135885000Y-118070000D02*
G75*
G02*
X133235000Y-115420000I0J2650000D01*
G01*
X153665000Y-67050000D02*
G75*
G02*
X156315000Y-69700000I0J-2650000D01*
G01*
X156315000Y-115420000D02*
G75*
G02*
X153665000Y-118070000I-2650000J0D01*
G01*
%TD*%
M02*
